<svg xmlns="http://www.w3.org/2000/svg" width="1440" height="780" viewBox="0 0 1440 780" role="img" aria-labelledby="title desc">
  <title id="title">Rudder 第一个组织的真实工作流程</title>
  <desc id="desc">从真实目标、组织、agent runtime、issue、assignee、heartbeat run、证据和 review，到 done 或 blocked，并通过 Messenger 和 Calendar 回看。</desc>
  <defs>
    <filter id="cardShadow" x="-10%" y="-10%" width="120%" height="130%">
      <feDropShadow dx="0" dy="10" stdDeviation="12" flood-color="#0f172a" flood-opacity="0.10"/>
    </filter>
    <marker id="arrow" markerWidth="16" markerHeight="16" refX="13" refY="8" orient="auto" markerUnits="strokeWidth">
      <path d="M3,3 L13,8 L3,13" fill="none" stroke="#0f766e" stroke-width="2.6" stroke-linecap="round" stroke-linejoin="round"/>
    </marker>
    <style>
      .title { font: 760 38px Inter, -apple-system, BlinkMacSystemFont, "PingFang SC", "Microsoft YaHei", sans-serif; fill: #0f172a; }
      .subtitle { font: 400 21px Inter, -apple-system, BlinkMacSystemFont, "PingFang SC", "Microsoft YaHei", sans-serif; fill: #475569; }
      .lane { font: 760 18px Inter, -apple-system, BlinkMacSystemFont, "PingFang SC", "Microsoft YaHei", sans-serif; letter-spacing: .08em; fill: #0f766e; }
      .step { font: 760 20px Inter, -apple-system, BlinkMacSystemFont, "PingFang SC", "Microsoft YaHei", sans-serif; fill: #0f766e; }
      .head { font: 760 28px Inter, -apple-system, BlinkMacSystemFont, "PingFang SC", "Microsoft YaHei", sans-serif; fill: #0f172a; }
      .body { font: 400 20px Inter, -apple-system, BlinkMacSystemFont, "PingFang SC", "Microsoft YaHei", sans-serif; fill: #475569; }
      .small { font: 400 18px Inter, -apple-system, BlinkMacSystemFont, "PingFang SC", "Microsoft YaHei", sans-serif; fill: #64748b; }
      .pill { font: 700 18px Inter, -apple-system, BlinkMacSystemFont, "PingFang SC", "Microsoft YaHei", sans-serif; fill: #0f172a; }
    </style>
  </defs>

  <rect width="1440" height="780" rx="36" fill="#f8fafc"/>
  <rect x="48" y="48" width="1344" height="684" rx="32" fill="#ffffff" stroke="#dbe3ea" stroke-width="2"/>

  <text x="86" y="116" class="title">第一个组织要跑通的，不是一堆功能，而是一条真实工作链路</text>
  <text x="86" y="158" class="subtitle">先把目标和 issue 写清楚，再让一个 agent 接手；运行后必须留下证据，最后由人或 reviewer 判断能不能关闭。</text>

  <text x="86" y="212" class="lane">主线：issue 是工作记录</text>

  <g filter="url(#cardShadow)">
    <rect x="86" y="238" width="270" height="138" rx="22" fill="#ecfdf5" stroke="#99f6e4" stroke-width="2"/>
    <text x="116" y="280" class="step">1. 真实目标</text>
    <text x="116" y="319" class="head">为什么要做</text>
    <text x="116" y="350" class="body">给组织一个可执行方向</text>
  </g>

  <g filter="url(#cardShadow)">
    <rect x="414" y="238" width="270" height="138" rx="22" fill="#eff6ff" stroke="#bfdbfe" stroke-width="2"/>
    <text x="444" y="280" class="step">2. 添加 agent</text>
    <text x="444" y="319" class="head">谁能接活</text>
    <text x="444" y="350" class="body">配置角色、能力、runtime</text>
  </g>

  <g filter="url(#cardShadow)">
    <rect x="742" y="238" width="270" height="138" rx="22" fill="#fff7ed" stroke="#fed7aa" stroke-width="2"/>
    <text x="772" y="280" class="step">3. 创建 issue</text>
    <text x="772" y="319" class="head">下一步是什么</text>
    <text x="772" y="350" class="body">标题、结果、上下文、验收</text>
  </g>

  <g filter="url(#cardShadow)">
    <rect x="1070" y="238" width="270" height="138" rx="22" fill="#f5f3ff" stroke="#ddd6fe" stroke-width="2"/>
    <text x="1100" y="280" class="step">4. 分配 issue</text>
    <text x="1100" y="319" class="head">只有一个 owner</text>
    <text x="1100" y="350" class="body">清楚后再交给执行者</text>
  </g>

  <path d="M372 307 H398" stroke="#0f766e" stroke-width="4" stroke-linecap="round" marker-end="url(#arrow)"/>
  <path d="M700 307 H726" stroke="#0f766e" stroke-width="4" stroke-linecap="round" marker-end="url(#arrow)"/>
  <path d="M1028 307 H1054" stroke="#0f766e" stroke-width="4" stroke-linecap="round" marker-end="url(#arrow)"/>

  <path d="M1205 390 V421 C1205 444 1186 463 1163 463 H1070" stroke="#0f766e" stroke-width="4" stroke-linecap="round" fill="none" marker-end="url(#arrow)"/>

  <g filter="url(#cardShadow)">
    <rect x="742" y="430" width="270" height="148" rx="22" fill="#fdf2f8" stroke="#fbcfe8" stroke-width="2"/>
    <text x="772" y="473" class="step">5. agent 运行</text>
    <text x="772" y="512" class="head">agent 开始执行</text>
    <text x="772" y="544" class="body">读取 issue，留下运行记录</text>
  </g>

  <g filter="url(#cardShadow)">
    <rect x="414" y="430" width="270" height="148" rx="22" fill="#fefce8" stroke="#fde68a" stroke-width="2"/>
    <text x="444" y="473" class="step">6. 检查证据</text>
    <text x="444" y="512" class="head">结果能检查吗</text>
    <text x="444" y="544" class="body">评论、文件、截图、验证</text>
  </g>

  <g filter="url(#cardShadow)">
    <rect x="86" y="430" width="270" height="148" rx="22" fill="#f1f5f9" stroke="#cbd5e1" stroke-width="2"/>
    <text x="116" y="473" class="step">7. 写回结论</text>
    <text x="116" y="512" class="head">通过 / 退回</text>
    <text x="116" y="544" class="body">接受、要求修改，或阻塞</text>
  </g>

  <path d="M1054 504 H1028" stroke="#0f766e" stroke-width="4" stroke-linecap="round" marker-end="url(#arrow)"/>
  <path d="M726 504 H700" stroke="#0f766e" stroke-width="4" stroke-linecap="round" marker-end="url(#arrow)"/>
  <path d="M398 504 H372" stroke="#0f766e" stroke-width="4" stroke-linecap="round" marker-end="url(#arrow)"/>

  <rect x="86" y="625" width="582" height="70" rx="20" fill="#f8fafc" stroke="#dbe3ea" stroke-width="2"/>
  <text x="116" y="655" class="pill">Messenger</text>
  <text x="220" y="655" class="small">看谁在等你：agent 提问、评审、阻塞、失败运行。</text>
  <text x="116" y="680" class="small">它把注意力带回 issue，不替代工作记录。</text>

  <rect x="710" y="625" width="630" height="70" rx="20" fill="#f8fafc" stroke="#dbe3ea" stroke-width="2"/>
  <text x="740" y="655" class="pill">Calendar</text>
  <text x="832" y="655" class="small">回看什么时候运行、什么时候评审、时间花在哪些 issue 上。</text>
  <text x="740" y="680" class="small">它来自真实 agent 运行和检查点，不是装饰日程。</text>
</svg>
